<?xml version="1.0" encoding="utf-8"?>
<!-- Generator: Adobe Illustrator 25.2.3, SVG Export Plug-In . SVG Version: 6.00 Build 0)  -->
<svg version="1.1" id="Layer_1" xmlns="http://www.w3.org/2000/svg" xmlns:xlink="http://www.w3.org/1999/xlink" x="0px" y="0px"
	 viewBox="0 0 50 50" style="enable-background:new 0 0 50 50;" xml:space="preserve">
<style type="text/css">
	.st0{fill:#FFFFFF;}
</style>
<g>
	<path class="st0" d="M48.26,3.11H1.74C0.78,3.11,0,3.89,0,4.84V9.5c0,0.96,0.78,1.74,1.74,1.74h46.53c0.96,0,1.74-0.78,1.74-1.74
		V4.84C50,3.89,49.22,3.11,48.26,3.11z"/>
	<path class="st0" d="M48.26,20.94H1.74C0.78,20.94,0,21.71,0,22.67v4.65c0,0.96,0.78,1.74,1.74,1.74h46.53
		c0.96,0,1.74-0.78,1.74-1.74v-4.65C50,21.71,49.22,20.94,48.26,20.94z"/>
	<path class="st0" d="M48.26,38.76H1.74C0.78,38.76,0,39.54,0,40.5v4.65c0,0.96,0.78,1.74,1.74,1.74h46.53
		c0.96,0,1.74-0.78,1.74-1.74V40.5C50,39.54,49.22,38.76,48.26,38.76z"/>
</g>
</svg>
