<?xml version="1.0" encoding="utf-8"?>
<!-- Generator: Adobe Illustrator 25.2.3, SVG Export Plug-In . SVG Version: 6.00 Build 0)  -->
<svg version="1.1" id="Layer_1" xmlns="http://www.w3.org/2000/svg" xmlns:xlink="http://www.w3.org/1999/xlink" x="0px" y="0px"
	 viewBox="0 0 50 50" style="enable-background:new 0 0 50 50;" xml:space="preserve">
<style type="text/css">
	.st0{fill:#FFFFFF;}
</style>
<path class="st0" d="M32.48,25l11.17-11.17c1.34-1.34,1.34-3.52,0-4.87l-2.61-2.61C39.7,5,37.52,5,36.17,6.35L25,17.52L13.83,6.35
	C12.48,5,10.3,5,8.96,6.35L6.35,8.96C5,10.3,5,12.48,6.35,13.83L17.52,25L6.35,36.17C5,37.52,5,39.7,6.35,41.04l2.61,2.61
	c1.34,1.34,3.52,1.34,4.87,0L25,32.48l11.17,11.17c1.34,1.34,3.52,1.34,4.87,0l2.61-2.61c1.34-1.34,1.34-3.52,0-4.87L32.48,25z"/>
</svg>
